<svg xmlns="http://www.w3.org/2000/svg" xmlns:xlink="http://www.w3.org/1999/xlink" width="128" zoomAndPan="magnify" viewBox="0 0 96 95.999999" height="128" preserveAspectRatio="xMidYMid meet" version="1.0"><defs><clipPath id="cc0ec9df4e"><path d="M 3.777344 1 L 92.277344 1 L 92.277344 95.367188 L 3.777344 95.367188 Z M 3.777344 1 " clip-rule="nonzero"/></clipPath></defs><g clip-path="url(#cc0ec9df4e)"><path fill="#000000" d="M 13.761719 95.089844 L 68.589844 95.089844 C 74.09375 95.089844 78.570312 90.605469 78.570312 85.089844 L 78.570312 81.355469 L 82.296875 81.355469 C 87.800781 81.355469 92.28125 76.871094 92.28125 71.355469 L 92.28125 11.140625 C 92.277344 5.628906 87.800781 1.144531 82.296875 1.144531 L 27.46875 1.144531 C 21.964844 1.144531 17.488281 5.628906 17.488281 11.140625 L 17.488281 14.875 L 13.761719 14.875 C 8.257812 14.875 3.777344 19.359375 3.777344 24.875 L 3.777344 85.089844 C 3.777344 90.605469 8.257812 95.089844 13.761719 95.089844 Z M 23.738281 11.140625 C 23.738281 9.082031 25.414062 7.40625 27.46875 7.40625 L 82.296875 7.40625 C 84.355469 7.40625 86.027344 9.082031 86.027344 11.140625 L 86.027344 71.355469 C 86.027344 73.417969 84.355469 75.09375 82.296875 75.09375 L 78.570312 75.09375 L 78.570312 24.875 C 78.570312 19.359375 74.09375 14.875 68.589844 14.875 L 23.738281 14.875 Z M 10.03125 24.875 C 10.03125 22.8125 11.703125 21.136719 13.761719 21.136719 L 68.589844 21.136719 C 70.644531 21.136719 72.320312 22.8125 72.320312 24.875 L 72.320312 85.089844 C 72.320312 87.148438 70.644531 88.824219 68.589844 88.824219 L 13.761719 88.824219 C 11.703125 88.824219 10.03125 87.148438 10.03125 85.089844 Z M 10.03125 24.875 " fill-opacity="1" fill-rule="nonzero"/></g><path fill="#000000" d="M 24.820312 58.113281 L 38.050781 58.113281 L 38.050781 71.367188 C 38.050781 73.097656 39.449219 74.496094 41.175781 74.496094 C 42.902344 74.496094 44.300781 73.097656 44.300781 71.367188 L 44.300781 58.113281 L 57.527344 58.113281 C 59.257812 58.113281 60.65625 56.710938 60.65625 54.984375 C 60.65625 53.253906 59.257812 51.851562 57.527344 51.851562 L 44.300781 51.851562 L 44.300781 38.597656 C 44.300781 36.867188 42.902344 35.464844 41.175781 35.464844 C 39.449219 35.464844 38.050781 36.867188 38.050781 38.597656 L 38.050781 51.851562 L 24.820312 51.851562 C 23.09375 51.851562 21.695312 53.253906 21.695312 54.984375 C 21.695312 56.710938 23.09375 58.113281 24.820312 58.113281 Z M 24.820312 58.113281 " fill-opacity="1" fill-rule="nonzero"/></svg>